<svg width="14" height="207" viewBox="0 0 14 207" fill="none" xmlns="http://www.w3.org/2000/svg">
<path d="M9.54545 105.83V106.852C10.8622 106.805 11.8466 105.591 11.8466 103.903C11.8466 102.233 10.875 100.92 9.40909 100.92C8.23295 100.92 7.53409 101.773 7.14205 103.136L6.83523 104.21C6.57955 105.131 6.25568 105.949 5.38636 105.949C4.43182 105.949 3.80114 105.028 3.80114 103.818C3.80114 102.778 4.26136 101.858 5.25 101.773V100.682C3.81818 100.784 2.84659 101.943 2.84659 103.818C2.84659 105.83 3.95455 106.972 5.36932 106.972C7.00568 106.972 7.53409 105.42 7.77273 104.517L8.01136 103.631C8.18182 102.983 8.52273 101.943 9.46023 101.943C10.2955 101.943 10.9091 102.71 10.9091 103.869C10.9091 104.926 10.4062 105.727 9.54545 105.83ZM9 117.532C10.7898 117.208 11.8466 115.776 11.8466 114.021C11.8466 111.788 10.125 110.168 7.36364 110.168C4.60227 110.168 2.88068 111.788 2.88068 114.021C2.88068 115.776 3.9375 117.208 5.72727 117.532V116.475C4.51705 116.219 3.86932 115.18 3.86932 114.021C3.86932 112.435 5.09659 111.191 7.36364 111.191C9.63068 111.191 10.858 112.435 10.858 114.021C10.858 115.18 10.2102 116.219 9 116.475V117.532ZM3 121.04V122.096H6.40909V124.006C6.40909 124.082 6.40909 124.155 6.41335 124.227L3 126.068V127.295L6.60511 125.322C6.98437 126.435 7.89205 126.954 9.05114 126.954C10.5937 126.954 11.7273 126.034 11.7273 123.988V121.04H3ZM7.36364 122.096H10.7898V123.954C10.7898 125.369 10.0994 125.915 9.05114 125.915C8.00284 125.915 7.36364 125.369 7.36364 123.971V122.096ZM7.36364 137.879C10.125 137.879 11.8466 136.26 11.8466 134.027C11.8466 131.794 10.125 130.175 7.36364 130.175C4.60227 130.175 2.88068 131.794 2.88068 134.027C2.88068 136.26 4.60227 137.879 7.36364 137.879ZM7.36364 136.856C5.09659 136.856 3.86932 135.612 3.86932 134.027C3.86932 132.442 5.09659 131.197 7.36364 131.197C9.63068 131.197 10.858 132.442 10.858 134.027C10.858 135.612 9.63068 136.856 7.36364 136.856ZM3 141.456L3 146.57H3.9375L3.9375 142.513H11.7273V141.456H3ZM3 150.006V155.12H3.9375V151.063H11.7273V150.006H3ZM3 166.424C3 169.083 4.65341 170.583 7.38068 170.583C10.0909 170.583 11.7273 169.083 11.7273 166.544V163.731H3V166.424ZM3.9375 164.788H10.7898V166.475C10.7898 168.521 9.49432 169.561 7.38068 169.561C5.25 169.561 3.9375 168.521 3.9375 166.356V164.788ZM7.36364 181.52C10.125 181.52 11.8466 179.9 11.8466 177.667C11.8466 175.434 10.125 173.815 7.36364 173.815C4.60227 173.815 2.88068 175.434 2.88068 177.667C2.88068 179.9 4.60227 181.52 7.36364 181.52ZM7.36364 180.497C5.09659 180.497 3.86932 179.253 3.86932 177.667C3.86932 176.082 5.09659 174.838 7.36364 174.838C9.63068 174.838 10.858 176.082 10.858 177.667C10.858 179.253 9.63068 180.497 7.36364 180.497ZM3 186.682V187.773L9.95455 189.699V189.767L3 191.693V192.784L11.7273 195.171V194.097L4.61932 192.273V192.188L11.7273 190.33V189.136L4.61932 187.278V187.193L11.7273 185.369V184.296L3 186.682ZM11.7273 205.208V204.168H4.85795V204.083L11.7273 199.31V198.287H3V199.344H9.85227V199.429L3 204.185V205.208H11.7273Z" fill="#62698F"/>
<line x1="7.25" y1="1.09278e-08" x2="7.25" y2="80" stroke="#C4C4C4" stroke-width="0.5"/>
</svg>
